<?xml version="1.0" encoding="utf-8"?>
<!-- Generator: Adobe Illustrator 26.0.0, SVG Export Plug-In . SVG Version: 6.00 Build 0)  -->
<svg version="1.1" id="Layer_1" xmlns="http://www.w3.org/2000/svg" xmlns:xlink="http://www.w3.org/1999/xlink" x="0px" y="0px"
	 viewBox="0 0 32 32" style="enable-background:new 0 0 32 32;" xml:space="preserve">
<style type="text/css">
	.st0{clip-path:url(#SVGID_00000120522658956378933060000015502170407198497184_);}
	.st1{fill:#FE0094;}
</style>
<g>
	<defs>
		<rect id="SVGID_1_" y="0" width="32" height="32"/>
	</defs>
	<clipPath id="SVGID_00000149345774304619720170000008008609268342683041_">
		<use xlink:href="#SVGID_1_"  style="overflow:visible;"/>
	</clipPath>
	<g style="clip-path:url(#SVGID_00000149345774304619720170000008008609268342683041_);">
		<path class="st1" d="M27.5,11.3C26.1,5.1,20.7,2.3,16,2.3c0,0,0,0,0,0c-4.7,0-10.1,2.8-11.5,8.9C2.9,18.1,7.1,24,11,27.6
			c1.4,1.4,3.2,2,5,2s3.6-0.7,5-2C24.8,24,29.1,18.1,27.5,11.3z M16,17.9c-2.3,0-4.2-1.9-4.2-4.2s1.9-4.2,4.2-4.2s4.2,1.9,4.2,4.2
			S18.3,17.9,16,17.9z"/>
	</g>
</g>
</svg>
