<?xml version="1.0" encoding="utf-8"?>
<!-- Generator: Adobe Illustrator 26.0.0, SVG Export Plug-In . SVG Version: 6.00 Build 0)  -->
<svg version="1.1" id="Layer_1" xmlns="http://www.w3.org/2000/svg" xmlns:xlink="http://www.w3.org/1999/xlink" x="0px" y="0px"
	 viewBox="0 0 32 32" style="enable-background:new 0 0 32 32;" xml:space="preserve">
<style type="text/css">
	.st0{fill:#FE0094;}
</style>
<path class="st0" d="M26,7.8l-7.9-4.6c-1.3-0.7-2.9-0.7-4.2,0L6,7.8c-1.3,0.7-2.1,2.1-2.1,3.6v9.1c0,1.5,0.8,2.9,2.1,3.6l7.9,4.6
	c1.3,0.7,2.9,0.7,4.2,0l7.9-4.6c1.3-0.7,2.1-2.1,2.1-3.6v-9.1C28.1,9.9,27.3,8.6,26,7.8z M16,9.8c1.7,0,3.1,1.4,3.1,3.1
	S17.7,16,16,16s-3.1-1.4-3.1-3.1C12.9,11.2,14.3,9.8,16,9.8z M19.6,22.2h-7.1c-1.1,0-1.7-1.2-1.1-2.1c0.9-1.3,2.7-2.3,4.7-2.3
	c2,0,3.8,0.9,4.7,2.3C21.3,21,20.6,22.2,19.6,22.2z"/>
</svg>
