<?xml version="1.0" encoding="utf-8"?>
<!-- Generator: Adobe Illustrator 26.0.0, SVG Export Plug-In . SVG Version: 6.00 Build 0)  -->
<svg version="1.1" id="Layer_1" xmlns="http://www.w3.org/2000/svg" xmlns:xlink="http://www.w3.org/1999/xlink" x="0px" y="0px"
	 viewBox="0 0 32 32" style="enable-background:new 0 0 32 32;" xml:space="preserve">
<style type="text/css">
	.st0{fill:#EC008C;}
</style>
<path class="st0" d="M28.7,14.3l-1.8-2.1c-0.3-0.4-0.6-1.1-0.6-1.7V8.3c0-1.4-1.2-2.6-2.6-2.6h-2.3c-0.5,0-1.3-0.3-1.7-0.6l-2.1-1.8
	c-0.9-0.8-2.4-0.8-3.4,0l-2.1,1.8c-0.4,0.3-1.2,0.6-1.7,0.6H8.2c-1.4,0-2.6,1.2-2.6,2.6v2.3c0,0.5-0.3,1.3-0.6,1.7l-1.8,2.1
	c-0.8,0.9-0.8,2.4,0,3.3l1.8,2.1c0.3,0.4,0.6,1.1,0.6,1.7v2.3c0,1.4,1.2,2.6,2.6,2.6h2.3c0.5,0,1.3,0.3,1.7,0.6l2.1,1.8
	c0.9,0.8,2.4,0.8,3.4,0l2.1-1.8c0.4-0.3,1.1-0.6,1.7-0.6h2.3c1.4,0,2.6-1.2,2.6-2.6v-2.3c0-0.5,0.3-1.3,0.6-1.7l1.8-2.1
	C29.5,16.8,29.5,15.2,28.7,14.3z M21.5,13.5l-6.4,6.4c-0.2,0.2-0.4,0.3-0.7,0.3c-0.3,0-0.5-0.1-0.7-0.3l-3.2-3.2
	c-0.4-0.4-0.4-1,0-1.4c0.4-0.4,1-0.4,1.4,0l2.5,2.5l5.7-5.7c0.4-0.4,1-0.4,1.4,0C21.9,12.5,21.9,13.1,21.5,13.5z"/>
</svg>
