<?xml version="1.0" encoding="utf-8"?>
<!-- Generator: Adobe Illustrator 26.0.0, SVG Export Plug-In . SVG Version: 6.00 Build 0)  -->
<svg version="1.1" id="Layer_1" xmlns="http://www.w3.org/2000/svg" xmlns:xlink="http://www.w3.org/1999/xlink" x="0px" y="0px"
	 viewBox="0 0 32 32" style="enable-background:new 0 0 32 32;" xml:space="preserve">
<style type="text/css">
	.st0{fill:#FE0094;}
</style>
<path class="st0" d="M6.7,20c-2.9,0-5.3,2.4-5.3,5.3c0,1,0.3,1.9,0.8,2.7c0.9,1.5,2.6,2.6,4.6,2.6c1.9,0,3.6-1,4.6-2.6
	c0.5-0.8,0.8-1.7,0.8-2.7C12,22.4,9.6,20,6.7,20z M8.7,26.3h-1v1c0,0.5-0.5,1-1,1c-0.5,0-1-0.5-1-1v-1h-1c-0.5,0-1-0.5-1-1
	c0-0.5,0.5-1,1-1h1v-0.9c0-0.5,0.5-1,1-1c0.5,0,1,0.5,1,1v0.9h1c0.5,0,1,0.5,1,1C9.7,25.9,9.2,26.3,8.7,26.3z"/>
<path class="st0" d="M28.7,16.7h-3.3c-1.5,0-2.7,1.2-2.7,2.7c0,1.5,1.2,2.7,2.7,2.7h3.3c0.4,0,0.7-0.3,0.7-0.7v-4
	C29.3,17,29,16.7,28.7,16.7z"/>
<path class="st0" d="M22,7.2c0.4,0.4,0.1,1-0.5,1l-11,0c-0.6,0-1-0.8-0.5-1.2l2.3-2.3c2-2,5.2-2,7.1,0L22,7.2C22,7.2,22,7.2,22,7.2z
	"/>
<path class="st0" d="M29.2,24.9c-0.8,2.7-3.2,4.5-6.4,4.5h-8.7c-0.5,0-0.9-0.6-0.6-1.1c0.4-0.9,0.7-2,0.7-2.9c0-4-3.3-7.3-7.3-7.3
	c-1,0-2,0.2-2.9,0.6c-0.5,0.2-1.1-0.1-1.1-0.7v-2c0-3.6,2.2-6.2,5.6-6.6c0.3-0.1,0.7-0.1,1.1-0.1h13.3c0.3,0,0.7,0,1,0.1
	c2.7,0.3,4.6,1.9,5.4,4.4c0.1,0.4-0.2,0.9-0.6,0.9h-3.1c-2.9,0-5.2,2.6-4.6,5.6c0.4,2.2,2.5,3.7,4.7,3.7h2.9
	C29,24,29.3,24.5,29.2,24.9z"/>
</svg>
