<?xml version="1.0" encoding="utf-8"?>
<!-- Generator: Adobe Illustrator 26.0.0, SVG Export Plug-In . SVG Version: 6.00 Build 0)  -->
<svg version="1.1" id="Layer_1" xmlns="http://www.w3.org/2000/svg" xmlns:xlink="http://www.w3.org/1999/xlink" x="0px" y="0px"
	 viewBox="0 0 437 371" style="enable-background:new 0 0 437 371;" xml:space="preserve">
<style type="text/css">
	.st0{clip-path:url(#SVGID_00000127730370551536777280000015167368169038948254_);}
	.st1{fill:#FE0094;}
	.st2{fill:#F498C0;}
	.st3{fill:#545454;}
	.st4{fill:#FFFFFF;stroke:#545454;stroke-width:1.92;stroke-miterlimit:10;}
	.st5{fill:#FFFFFF;stroke:#545454;stroke-width:0.96;stroke-miterlimit:10;}
	.st6{fill:#FFFFFF;}
	.st7{fill:#FCFCFC;}
	.st8{fill:none;stroke:#545454;stroke-width:1.92;stroke-miterlimit:10;}
	.st9{fill:#F062A4;}
	.st10{fill:#E6F0FF;}
	.st11{fill:none;stroke:#545454;stroke-width:1.92;stroke-linecap:round;stroke-miterlimit:10;}
	.st12{fill:none;stroke:#545454;stroke-width:2.88;stroke-miterlimit:10;}
	.st13{fill:none;stroke:#FFFFFF;stroke-width:4.81;stroke-linecap:round;stroke-miterlimit:10;}
	.st14{fill:none;stroke:#545454;stroke-width:1.85;stroke-linecap:round;stroke-miterlimit:10;}
	.st15{fill:#F062A4;stroke:#EF5BA1;stroke-miterlimit:10;}
</style>
<g>
	<defs>
		<rect id="SVGID_1_" x="-10.2" y="4.5" width="437" height="370.7"/>
	</defs>
	<clipPath id="SVGID_00000000203350560346846100000017836980550296805014_">
		<use xlink:href="#SVGID_1_"  style="overflow:visible;"/>
	</clipPath>
	<g style="clip-path:url(#SVGID_00000000203350560346846100000017836980550296805014_);">
		<path class="st1" d="M365.6,99.1l-33.8,72.4l-57.3-11.9l2.9-9.1l47.5,10.6l30.2-62.3c0.3-0.6,0.8-1.2,1.3-1.6
			c1.5-1.1,4.7-2.7,8.3-0.6C365.6,97.1,366,98.2,365.6,99.1L365.6,99.1z"/>
		<path class="st2" d="M189.1,372.5h109.6V207.2H189.1V372.5z"/>
		<path class="st3" d="M293.2,274.3l-4.4,13.2c0,0,6.8,8,6.5,17.3c0,0-27.7-13.4-27.3-15.7s9.8-23,9.8-23L293.2,274.3L293.2,274.3z
			 M363.8,257.4l8.1,11.3c0,0,10.5-0.8,17.8,4.9c0,0-27.1,14.6-28.7,12.9S348,265,348,265L363.8,257.4L363.8,257.4z"/>
		<path class="st4" d="M328.2,178.9c1.8-3.6,46.4,74.4,45.7,76l-33.6,17l-22.7-36.8L328.2,178.9L328.2,178.9z"/>
		<path class="st4" d="M270.3,157.1c0,0,68.6,6.1,64.7,35.4c0,0,2.1,22-32.3,86.9l-34.7-11.9l28.7-59.8l-85.1-1.3
			c0,0-30.1-9.7-20.6-50.1l39.4-8.5L270.3,157.1L270.3,157.1z"/>
		<path class="st5" d="M226.3,85.6c0,0-2,11.7-4,13.7c-2,2-8.5,2-8.5,2L202,92l8.5-12.5L226.3,85.6z"/>
		<path class="st6" d="M228.7,86.5c11.6-1.9,19.4-12.8,17.6-24.3s-12.8-19.4-24.4-17.5c-11.6,1.9-19.4,12.8-17.6,24.3
			C206.2,80.5,217.1,88.4,228.7,86.5z"/>
		<path class="st3" d="M225.3,44.5c4.2,0,8.2,1.2,11.7,3.5c9.6,6.4,12.3,19.5,5.8,29.1c-0.8,1.1-1.6,2.2-2.6,3.2
			c-8.2,8.2-21.5,8.2-29.8,0c-1-1-1.8-2-2.6-3.2c-2.3-3.5-3.5-7.5-3.5-11.7c0-5.6,2.2-10.9,6.2-14.9
			C214.3,46.8,219.7,44.6,225.3,44.5L225.3,44.5z M225.3,44.1c-4.2,0-8.4,1.3-11.9,3.6c-7.2,4.8-10.8,13.5-9.1,22
			c1.7,8.5,8.3,15.2,16.9,16.8c4.2,0.8,8.5,0.4,12.4-1.2c3.9-1.6,7.3-4.4,9.6-7.9c5.7-8.5,4.6-19.8-2.7-27.1
			C236.4,46.4,231,44.1,225.3,44.1z"/>
		<path class="st7" d="M304,152.9c1.7,0.7,2.9,4.8,4.3,6.2c1.4,1.4,3.5,0.2,1.4-3 M303.8,157.2c2.2,3.2,0.6,4.7-1.1,3.6
			c-0.7-0.5-1.7-1.9-2.5-3.4c-1.3-2.4-3.7-4-6.4-4.4c-5.2-0.8-14.9-1-30.6,3.2c-25.7,6.7-41.8,6.1-46.5-19.8l17.5-4.5
			c0.2,0.5,3.3,13.4,3.3,13.4s47.4-5.4,54.5-5.4c7.3,0,18.7,10.1,20.2,15.5c0.3,1,0.3,3.5-2.5,0.7c-0.8-0.8-1.4-2.7-3.6-4.4
			 M306.8,156.8c2.2,3.2,0.7,4.6-1.1,3.6c-1.6-1-1.9-5.2-4.4-7"/>
		<path class="st8" d="M304,152.9c1.7,0.7,2.9,4.8,4.3,6.2c1.4,1.4,3.5,0.2,1.4-3 M303.8,157.2c2.2,3.2,0.6,4.7-1.1,3.6
			c-0.7-0.5-1.7-1.9-2.5-3.4c-1.3-2.4-3.7-4-6.4-4.4c-5.2-0.8-14.9-1-30.6,3.2c-25.7,6.7-41.8,6.1-46.5-19.8l17.5-4.5
			c0.2,0.5,3.3,13.4,3.3,13.4s47.4-5.4,54.5-5.4c7.3,0,18.7,10.1,20.2,15.5c0.3,1,0.3,3.5-2.5,0.7c-0.8-0.8-1.4-2.7-3.6-4.4
			 M306.8,156.8c2.2,3.2,0.7,4.6-1.1,3.6c-1.6-1-1.9-5.2-4.4-7"/>
		<path class="st6" d="M322.5,138.9c3.2,0.8,5.2,4.9,7.3,5.3c2.2,0.3,3.1-1.7-0.4-4 M332,138.2c3.5,2.3,1.9,4.4-0.1,3.5
			c-2-0.8-4.9-4.4-6.9-4.4 M332,138.2c3.5,2.3,1.9,4.4-0.1,3.5c-2-0.8-4.9-4.4-6.9-4.4 M326.6,141.7c3.5,2.3,2.5,4.5,0.4,4
			c-0.9-0.2-2.5-1.3-3.9-2.3c-2.3-1.8-5.3-2.5-8.2-1.8c-5.5,1.4-15.4,5.2-29.6,15.8c-23.1,17.4-39.6,23.4-55-0.8l15.8-11.7
			c0.4,0.4,6.5,8.9,6.5,8.9s47.9-21.7,55-24.7c7.4-3,23.1,2.4,26.7,7.3c0.7,0.9,1.8,3.4-2.3,1.7c-1.1-0.5-2.6-2.1-5.4-2.9"/>
		<path class="st8" d="M322.5,138.9c3.2,0.8,5.2,4.9,7.3,5.3c2.2,0.3,3.1-1.7-0.4-4 M332,138.2c3.5,2.3,1.9,4.4-0.1,3.5
			c-2-0.8-4.9-4.4-6.9-4.4 M332,138.2c3.5,2.3,1.9,4.4-0.1,3.5c-2-0.8-4.9-4.4-6.9-4.4 M326.6,141.7c3.5,2.3,2.5,4.5,0.4,4
			c-0.9-0.2-2.5-1.3-3.9-2.3c-2.3-1.8-5.3-2.5-8.2-1.8c-5.5,1.4-15.4,5.2-29.6,15.8c-23.1,17.4-39.6,23.4-55-0.8l15.8-11.7
			c0.4,0.4,6.5,8.9,6.5,8.9s47.9-21.7,55-24.7c7.4-3,23.1,2.4,26.7,7.3c0.7,0.9,1.8,3.4-2.3,1.7c-1.1-0.5-2.6-2.1-5.4-2.9"/>
		<path class="st9" d="M95.4,372.3h78.9V236.1H95.4V372.3z"/>
		<path class="st10" d="M131.9,256.5c2.2,0,3.9-1.7,4-3.9c0-2.2-1.7-3.9-3.9-4c0,0-0.1,0-0.1,0c-2.2,0-3.9,1.8-3.9,3.9
			C128,254.7,129.8,256.5,131.9,256.5z M108.7,263.2c1.5-1.5,1.5-4,0-5.5c0,0,0,0,0,0c-1.5-1.5-4-1.5-5.5,0c-1.5,1.5-1.5,4,0,5.5
			c0,0,0,0,0,0C104.7,264.7,107.2,264.7,108.7,263.2z M126.6,279.6c2.2,0,3.9-1.7,4-3.9c0-2.2-1.7-3.9-3.9-4c0,0-0.1,0-0.1,0
			c-2.2,0-3.9,1.7-4,3.9c0,2.2,1.7,3.9,3.9,4C126.5,279.6,126.6,279.6,126.6,279.6z M122.2,301.6c1.5-1.5,1.5-4,0-5.5c0,0,0,0,0,0
			c-1.5-1.5-4-1.5-5.5,0c-1.5,1.5-1.5,4,0,5.5c0,0,0,0,0,0C118.2,303.1,120.7,303.1,122.2,301.6z M116.6,327.6c1.5-1.5,1.5-4,0-5.5
			c0,0,0,0,0,0c-1.5-1.5-4-1.5-5.5,0c-1.5,1.5-1.5,4,0,5.5c0,0,0,0,0,0C112.5,329.1,115,329.1,116.6,327.6z M130.5,346.5
			c2.2,0.1,4-1.6,4-3.8c0.1-2.2-1.6-4-3.8-4c-0.1,0-0.1,0-0.2,0c-2.2,0-3.9,1.8-3.9,3.9C126.6,344.8,128.4,346.5,130.5,346.5
			L130.5,346.5z M115.3,353.8c0.8-2-0.1-4.3-2.1-5.1c-2-0.8-4.3,0.1-5.1,2.1c-0.8,2,0.2,4.3,2.2,5.1
			C112.2,356.6,114.4,355.7,115.3,353.8L115.3,353.8z M143.3,320.8c1.5-1.5,1.5-4,0-5.5c0,0,0,0,0,0c-1.5-1.5-4-1.5-5.5,0
			c-1.5,1.5-1.5,4,0,5.5c0,0,0,0,0,0C139.3,322.4,141.7,322.4,143.3,320.8z M144.4,296.4c2.2,0,3.9-1.8,3.9-3.9
			c0-2.2-1.8-3.9-3.9-3.9c0,0,0,0,0,0c-2.2,0-3.9,1.7-4,3.9c0,2.2,1.7,3.9,3.9,4C144.3,296.4,144.4,296.4,144.4,296.4L144.4,296.4z
			 M165.4,286.6c1.7-1.3,2-3.8,0.6-5.5c0,0,0,0,0,0c-1.3-1.7-3.8-2-5.5-0.6c-1.7,1.3-2,3.8-0.6,5.5c0,0,0,0,0,0
			C161.2,287.7,163.7,288,165.4,286.6z M165.4,315.1c1.7-1.3,2-3.8,0.6-5.5c0,0,0,0,0,0c-1.3-1.7-3.8-2-5.5-0.6
			c-1.7,1.3-2,3.8-0.6,5.5c0,0,0,0,0,0C161.2,316.2,163.7,316.4,165.4,315.1z M153.3,338.3c2.2,0,3.9-1.8,3.9-3.9
			c0-2.2-1.8-3.9-3.9-3.9c-2.2,0-3.9,1.8-3.9,3.9l0,0C149.4,336.6,151.1,338.3,153.3,338.3z M163.9,355.3c2.1-0.5,3.3-2.7,2.8-4.8
			c0,0,0,0,0,0c-0.6-2.1-2.8-3.3-4.9-2.7c-2,0.6-3.2,2.6-2.7,4.7C159.7,354.6,161.8,355.9,163.9,355.3z M152.2,269.6
			c1.5-1.5,1.5-4,0-5.5c0,0,0,0,0,0c-1.5-1.5-4-1.5-5.5,0c-1.5,1.5-1.5,4,0,5.5c0,0,0,0,0,0C148.2,271.1,150.6,271.1,152.2,269.6z"
			/>
		<path class="st11" d="M156.9,57.1c0,0-22.2,15.8-34-10.9s23.6,3.3-8.1,17.2c-14.7,4.9-20.4-14.1-26.5-23.8
			c-6.1-9.7-15.8-5.6-17.4,10.1c-2.1,18.8-13.2,7.8-19.2,0.3c-6.9-8.6-19.9-9.7-27.9-2.1l-0.6,0.6 M-1.4,172.5
			c14.7-4.8,20.4,14.1,26.5,23.8c6.1,9.7,15.8,5.7,17.4-10.1c2.1-18.8,13.2-7.8,19.2-0.3c6.9,8.6,19.9,9.7,27.9,2.1
			c0.2-0.2,0.4-0.4,0.6-0.6"/>
		<path class="st12" d="M435.2,372.5H-1.6"/>
		<path class="st3" d="M160,99.6c15.8,6.1,29.7,7.8,38.4-1.5l17.8-23.4c-2,1.2-7.3-7.7-2-9.7c5.2-2,6.5,3.2,6.5,3.2
			c10.9,1.6,15.4-10.5,15.4-10.5c4.9,8.5,10.5,6.9,10.5,6.9c-2.1-22-23-23.3-36.6-17.6c0.9-1.2,1.4-2.7,1.4-4.2
			c0-4.2-3.8-7.7-8.5-7.7c-4.7,0-8.5,3.4-8.5,7.7s3.8,7.7,8.5,7.7c0.3,0,0.7,0,1-0.1c-3.5,2.6-5.7,5.8-5.5,9c0.3,5-5.3,4-5.3,4
			c-15.4-1.6-15.8,9.3-15.8,9.3c-1.2,8.5-6.5,8.9-6.5,8.9c-9.8,2.3-13.3,7.3-14.4,11.2C155.7,95.6,157.2,98.6,160,99.6L160,99.6z"/>
		<path class="st1" d="M223.8,98.1c0.3,0,0.7,8.1,0.8,11.3c0,0.8,0.4,1.6,1,2.1c3.7,3.2,17.2,15.7,24,30.1c0.6,1.3,0.2,2.8-1,3.6
			l-18.8,13.4c-0.5,0.3-1,0.5-1.6,0.6l-52.1,1.5c-0.9,0-1.7-0.4-2.3-1.1c-0.6-0.7-0.8-1.6-0.6-2.5c2.2-10.7,9.7-42.4,24.6-60.4
			c0.1-0.1,0.2-0.3,0.3-0.5l1.7-3.2c0.8-1.4,2.5-2,4-1.2C208.2,94.2,217.5,98.7,223.8,98.1L223.8,98.1z"/>
		<path class="st13" d="M200,101.3v8.2 M219.5,109.5h-8.2 M198.6,121.6l5.9-5.6 M217.3,119.9l-0.7,8.2 M226.7,120.2l7.3,3.7
			 M231.2,135l8-1.7 M226.3,144.9l4.7,6.7 M204.4,97.5l7.3,3.7 M186.7,125.4l5.5,6 M201.2,130.9l8.2-0.8 M210,137l6.7,4.7
			 M185.7,138.3l6.7,4.7 M180.3,143l-0.2,8.2 M196.4,151.7l-8.2-0.3 M212.4,154.5l-4.6-6.8"/>
		<path class="st3" d="M216.8,67.8c-1.2,1.7-0.5,3.3,1.2,4.1c0.2,0,0.4,0.3,0.3,0.5c0,0.2-0.3,0.4-0.5,0.3c-0.1,0-0.1-0.1-0.2-0.1
			C215.9,71.4,215.2,69.4,216.8,67.8L216.8,67.8z M232.1,85.6c-2.9-0.1-5.6-2-6.3-4.8c0,0,0,0,0,0c0,0,0,0,0,0c0,0,0,0,0,0
			c0,0,0,0,0,0c0.8,2.7,3.5,4.4,6.2,4.5c0.1,0,0.2,0.1,0.2,0.2S232.3,85.6,232.1,85.6C232.1,85.6,232.1,85.6,232.1,85.6L232.1,85.6
			L232.1,85.6z"/>
		<path class="st14" d="M395.3,207c3,0,5.5-2.4,5.5-5.5c0-3-2.4-5.5-5.5-5.5c-3,0-5.5,2.4-5.5,5.5v0
			C389.9,204.6,392.3,207,395.3,207C395.3,207,395.3,207,395.3,207z M28.5,21.9c3,0,5.5-2.4,5.5-5.5c0,0,0,0,0,0
			c0-3-2.4-5.5-5.5-5.5h0c-3,0-5.5,2.4-5.5,5.5C23,19.5,25.5,21.9,28.5,21.9z"/>
		<path class="st3" d="M225.7,88.7c0,0-5.3-0.1-8.5-3.3c0,0,6.1,2,8.7,1.4L225.7,88.7L225.7,88.7z"/>
		<path class="st1" d="M310.6,23.2c6.2,0,12.3,1.8,17.4,5.3c14.4,9.6,18.3,29.1,8.7,43.5c-1.1,1.7-2.5,3.3-3.9,4.8
			c-9,9-22.5,11.7-34.2,6.8c-5.7-2.4-10.6-6.4-14.1-11.5c-3.4-5.2-5.3-11.2-5.3-17.4c0-8.3,3.3-16.3,9.2-22.2
			C294.3,26.5,302.3,23.2,310.6,23.2 M310.6,21.9c-6.5,0-12.8,1.9-18.1,5.5c-5.4,3.6-9.5,8.7-12,14.6c-2.5,6-3.1,12.5-1.9,18.8
			c1.3,6.3,4.4,12.1,8.9,16.7c9.3,9.3,23.4,12.1,35.6,7.1c6-2.5,11.1-6.6,14.6-12c6.1-9.1,7.2-20.5,3-30.6
			C335.7,29.8,323.8,21.9,310.6,21.9z"/>
		<path class="st15" d="M309,31.7v23.5 M320.5,66.7L309,55.2"/>
		<path class="st3" d="M311.4,55.2c0,1-0.6,1.9-1.5,2.3c-1.2,0.5-2.7-0.1-3.2-1.3c-0.1-0.1-0.1-0.3-0.1-0.5c-0.2-1,0.2-2,1-2.5
			c1.1-0.7,2.6-0.4,3.4,0.7C311.3,54.2,311.4,54.7,311.4,55.2L311.4,55.2z"/>
	</g>
</g>
</svg>
